<svg xmlns:xlink="http://www.w3.org/1999/xlink" width="75ex" height="31.843ex" style="font-size: 15px; vertical-align: -15.838ex; max-width: 450;" viewBox="0 -6890.9 32291.5 13710" role="img" focusable="false" xmlns="http://www.w3.org/2000/svg">
<defs>
<path stroke-width="1" id="E1-MJMAIN-2202" d="M202 508Q179 508 169 520T158 547Q158 557 164 577T185 624T230 675T301 710L333 715H345Q378 715 384 714Q447 703 489 661T549 568T566 457Q566 362 519 240T402 53Q321 -22 223 -22Q123 -22 73 56Q42 102 42 148V159Q42 276 129 370T322 465Q383 465 414 434T455 367L458 378Q478 461 478 515Q478 603 437 639T344 676Q266 676 223 612Q264 606 264 572Q264 547 246 528T202 508ZM430 306Q430 372 401 400T333 428Q270 428 222 382Q197 354 183 323T150 221Q132 149 132 116Q132 21 232 21Q244 21 250 22Q327 35 374 112Q389 137 409 196T430 306Z"></path>
<path stroke-width="1" id="E1-MJMATHI-4C" d="M228 637Q194 637 192 641Q191 643 191 649Q191 673 202 682Q204 683 217 683Q271 680 344 680Q485 680 506 683H518Q524 677 524 674T522 656Q517 641 513 637H475Q406 636 394 628Q387 624 380 600T313 336Q297 271 279 198T252 88L243 52Q243 48 252 48T311 46H328Q360 46 379 47T428 54T478 72T522 106T564 161Q580 191 594 228T611 270Q616 273 628 273H641Q647 264 647 262T627 203T583 83T557 9Q555 4 553 3T537 0T494 -1Q483 -1 418 -1T294 0H116Q32 0 32 10Q32 17 34 24Q39 43 44 45Q48 46 59 46H65Q92 46 125 49Q139 52 144 61Q147 65 216 339T285 628Q285 635 228 637Z"></path>
<path stroke-width="1" id="E1-MJMATHI-77" d="M580 385Q580 406 599 424T641 443Q659 443 674 425T690 368Q690 339 671 253Q656 197 644 161T609 80T554 12T482 -11Q438 -11 404 5T355 48Q354 47 352 44Q311 -11 252 -11Q226 -11 202 -5T155 14T118 53T104 116Q104 170 138 262T173 379Q173 380 173 381Q173 390 173 393T169 400T158 404H154Q131 404 112 385T82 344T65 302T57 280Q55 278 41 278H27Q21 284 21 287Q21 293 29 315T52 366T96 418T161 441Q204 441 227 416T250 358Q250 340 217 250T184 111Q184 65 205 46T258 26Q301 26 334 87L339 96V119Q339 122 339 128T340 136T341 143T342 152T345 165T348 182T354 206T362 238T373 281Q402 395 406 404Q419 431 449 431Q468 431 475 421T483 402Q483 389 454 274T422 142Q420 131 420 107V100Q420 85 423 71T442 42T487 26Q558 26 600 148Q609 171 620 213T632 273Q632 306 619 325T593 357T580 385Z"></path>
<path stroke-width="1" id="E1-MJMATHI-69" d="M184 600Q184 624 203 642T247 661Q265 661 277 649T290 619Q290 596 270 577T226 557Q211 557 198 567T184 600ZM21 287Q21 295 30 318T54 369T98 420T158 442Q197 442 223 419T250 357Q250 340 236 301T196 196T154 83Q149 61 149 51Q149 26 166 26Q175 26 185 29T208 43T235 78T260 137Q263 149 265 151T282 153Q302 153 302 143Q302 135 293 112T268 61T223 11T161 -11Q129 -11 102 10T74 74Q74 91 79 106T122 220Q160 321 166 341T173 380Q173 404 156 404H154Q124 404 99 371T61 287Q60 286 59 284T58 281T56 279T53 278T49 278T41 278H27Q21 284 21 287Z"></path>
<path stroke-width="1" id="E1-MJMAIN-3D" d="M56 347Q56 360 70 367H707Q722 359 722 347Q722 336 708 328L390 327H72Q56 332 56 347ZM56 153Q56 168 72 173H708Q722 163 722 153Q722 140 707 133H70Q56 140 56 153Z"></path>
<path stroke-width="1" id="E1-MJMATHI-70" d="M23 287Q24 290 25 295T30 317T40 348T55 381T75 411T101 433T134 442Q209 442 230 378L240 387Q302 442 358 442Q423 442 460 395T497 281Q497 173 421 82T249 -10Q227 -10 210 -4Q199 1 187 11T168 28L161 36Q160 35 139 -51T118 -138Q118 -144 126 -145T163 -148H188Q194 -155 194 -157T191 -175Q188 -187 185 -190T172 -194Q170 -194 161 -194T127 -193T65 -192Q-5 -192 -24 -194H-32Q-39 -187 -39 -183Q-37 -156 -26 -148H-6Q28 -147 33 -136Q36 -130 94 103T155 350Q156 355 156 364Q156 405 131 405Q109 405 94 377T71 316T59 280Q57 278 43 278H29Q23 284 23 287ZM178 102Q200 26 252 26Q282 26 310 49T356 107Q374 141 392 215T411 325V331Q411 405 350 405Q339 405 328 402T306 393T286 380T269 365T254 350T243 336T235 326L232 322Q232 321 229 308T218 264T204 212Q178 106 178 102Z"></path>
<path stroke-width="1" id="E1-MJMAIN-22C5" d="M78 250Q78 274 95 292T138 310Q162 310 180 294T199 251Q199 226 182 208T139 190T96 207T78 250Z"></path>
<path stroke-width="1" id="E1-MJMATHI-73" d="M131 289Q131 321 147 354T203 415T300 442Q362 442 390 415T419 355Q419 323 402 308T364 292Q351 292 340 300T328 326Q328 342 337 354T354 372T367 378Q368 378 368 379Q368 382 361 388T336 399T297 405Q249 405 227 379T204 326Q204 301 223 291T278 274T330 259Q396 230 396 163Q396 135 385 107T352 51T289 7T195 -10Q118 -10 86 19T53 87Q53 126 74 143T118 160Q133 160 146 151T160 120Q160 94 142 76T111 58Q109 57 108 57T107 55Q108 52 115 47T146 34T201 27Q237 27 263 38T301 66T318 97T323 122Q323 150 302 164T254 181T195 196T148 231Q131 256 131 289Z"></path>
<path stroke-width="1" id="E1-MJMAIN-5B" d="M118 -250V750H255V710H158V-210H255V-250H118Z"></path>
<path stroke-width="1" id="E1-MJMAIN-2212" d="M84 237T84 250T98 270H679Q694 262 694 250T679 230H98Q84 237 84 250Z"></path>
<path stroke-width="1" id="E1-MJMATHI-79" d="M21 287Q21 301 36 335T84 406T158 442Q199 442 224 419T250 355Q248 336 247 334Q247 331 231 288T198 191T182 105Q182 62 196 45T238 27Q261 27 281 38T312 61T339 94Q339 95 344 114T358 173T377 247Q415 397 419 404Q432 431 462 431Q475 431 483 424T494 412T496 403Q496 390 447 193T391 -23Q363 -106 294 -155T156 -205Q111 -205 77 -183T43 -117Q43 -95 50 -80T69 -58T89 -48T106 -45Q150 -45 150 -87Q150 -107 138 -122T115 -142T102 -147L99 -148Q101 -153 118 -160T152 -167H160Q177 -167 186 -165Q219 -156 247 -127T290 -65T313 -9T321 21L315 17Q309 13 296 6T270 -6Q250 -11 231 -11Q185 -11 150 11T104 82Q103 89 103 113Q103 170 138 262T173 379Q173 380 173 381Q173 390 173 393T169 400T158 404H154Q131 404 112 385T82 344T65 302T57 280Q55 278 41 278H27Q21 284 21 287Z"></path>
<path stroke-width="1" id="E1-MJMAIN-2B" d="M56 237T56 250T70 270H369V420L370 570Q380 583 389 583Q402 583 409 568V270H707Q722 262 722 250T707 230H409V-68Q401 -82 391 -82H389H387Q375 -82 369 -68V230H70Q56 237 56 250Z"></path>
<path stroke-width="1" id="E1-MJMAIN-31" d="M213 578L200 573Q186 568 160 563T102 556H83V602H102Q149 604 189 617T245 641T273 663Q275 666 285 666Q294 666 302 660V361L303 61Q310 54 315 52T339 48T401 46H427V0H416Q395 3 257 3Q121 3 100 0H88V46H114Q136 46 152 46T177 47T193 50T201 52T207 57T213 61V578Z"></path>
<path stroke-width="1" id="E1-MJMAIN-5D" d="M22 710V750H159V-250H22V-210H119V710H22Z"></path>
<path stroke-width="1" id="E1-MJMATHI-3C3" d="M184 -11Q116 -11 74 34T31 147Q31 247 104 333T274 430Q275 431 414 431H552Q553 430 555 429T559 427T562 425T565 422T567 420T569 416T570 412T571 407T572 401Q572 357 507 357Q500 357 490 357T476 358H416L421 348Q439 310 439 263Q439 153 359 71T184 -11ZM361 278Q361 358 276 358Q152 358 115 184Q114 180 114 178Q106 141 106 117Q106 67 131 47T188 26Q242 26 287 73Q316 103 334 153T356 233T361 278Z"></path>
<path stroke-width="1" id="E1-MJMAIN-28" d="M94 250Q94 319 104 381T127 488T164 576T202 643T244 695T277 729T302 750H315H319Q333 750 333 741Q333 738 316 720T275 667T226 581T184 443T167 250T184 58T225 -81T274 -167T316 -220T333 -241Q333 -250 318 -250H315H302L274 -226Q180 -141 137 -14T94 250Z"></path>
<path stroke-width="1" id="E1-MJMAIN-29" d="M60 749L64 750Q69 750 74 750H86L114 726Q208 641 251 514T294 250Q294 182 284 119T261 12T224 -76T186 -143T145 -194T113 -227T90 -246Q87 -249 86 -250H74Q66 -250 63 -250T58 -247T55 -238Q56 -237 66 -225Q221 -64 221 250T66 725Q56 737 55 738Q55 746 60 749Z"></path>
<path stroke-width="1" id="E1-MJMATHI-78" d="M52 289Q59 331 106 386T222 442Q257 442 286 424T329 379Q371 442 430 442Q467 442 494 420T522 361Q522 332 508 314T481 292T458 288Q439 288 427 299T415 328Q415 374 465 391Q454 404 425 404Q412 404 406 402Q368 386 350 336Q290 115 290 78Q290 50 306 38T341 26Q378 26 414 59T463 140Q466 150 469 151T485 153H489Q504 153 504 145Q504 144 502 134Q486 77 440 33T333 -11Q263 -11 227 52Q186 -10 133 -10H127Q78 -10 57 16T35 71Q35 103 54 123T99 143Q142 143 142 101Q142 81 130 66T107 46T94 41L91 40Q91 39 97 36T113 29T132 26Q168 26 194 71Q203 87 217 139T245 247T261 313Q266 340 266 352Q266 380 251 392T217 404Q177 404 142 372T93 290Q91 281 88 280T72 278H58Q52 284 52 289Z"></path>
</defs>
<g stroke="currentColor" fill="currentColor" stroke-width="0" transform="matrix(1 0 0 -1 0 0)">
<g transform="translate(1590,0)">
<g transform="translate(167,0)">
<g transform="translate(-11,0)">
<g transform="translate(0,5351)">
<g transform="translate(120,0)">
<rect stroke="none" width="1748" height="60" x="0" y="220"></rect>
<g transform="translate(249,676)">
 <use xlink:href="#E1-MJMAIN-2202" x="0" y="0"></use>
 <use xlink:href="#E1-MJMATHI-4C" x="567" y="0"></use>
</g>
<g transform="translate(60,-736)">
 <use xlink:href="#E1-MJMAIN-2202" x="0" y="0"></use>
<g transform="translate(567,0)">
 <use xlink:href="#E1-MJMATHI-77" x="0" y="0"></use>
 <use transform="scale(0.707)" xlink:href="#E1-MJMATHI-69" x="1013" y="-213"></use>
</g>
</g>
</g>
</g>
</g>
<g transform="translate(1977,0)">
<g transform="translate(0,5351)">
 <use xlink:href="#E1-MJMAIN-3D" x="277" y="0"></use>
<g transform="translate(1056,0)">
<g transform="translate(397,0)">
<rect stroke="none" width="1369" height="60" x="0" y="220"></rect>
<g transform="translate(60,676)">
 <use xlink:href="#E1-MJMAIN-2202" x="0" y="0"></use>
 <use xlink:href="#E1-MJMATHI-4C" x="567" y="0"></use>
</g>
<g transform="translate(149,-736)">
 <use xlink:href="#E1-MJMAIN-2202" x="0" y="0"></use>
 <use xlink:href="#E1-MJMATHI-70" x="567" y="0"></use>
</g>
</g>
</g>
 <use xlink:href="#E1-MJMAIN-22C5" x="3165" y="0"></use>
<g transform="translate(3443,0)">
<g transform="translate(342,0)">
<rect stroke="none" width="1191" height="60" x="0" y="220"></rect>
<g transform="translate(60,714)">
 <use xlink:href="#E1-MJMAIN-2202" x="0" y="0"></use>
 <use xlink:href="#E1-MJMATHI-70" x="567" y="0"></use>
</g>
<g transform="translate(77,-736)">
 <use xlink:href="#E1-MJMAIN-2202" x="0" y="0"></use>
 <use xlink:href="#E1-MJMATHI-73" x="567" y="0"></use>
</g>
</g>
</g>
 <use xlink:href="#E1-MJMAIN-22C5" x="5319" y="0"></use>
<g transform="translate(5597,0)">
<g transform="translate(342,0)">
<rect stroke="none" width="1748" height="60" x="0" y="220"></rect>
<g transform="translate(355,676)">
 <use xlink:href="#E1-MJMAIN-2202" x="0" y="0"></use>
 <use xlink:href="#E1-MJMATHI-73" x="567" y="0"></use>
</g>
<g transform="translate(60,-736)">
 <use xlink:href="#E1-MJMAIN-2202" x="0" y="0"></use>
<g transform="translate(567,0)">
 <use xlink:href="#E1-MJMATHI-77" x="0" y="0"></use>
 <use transform="scale(0.707)" xlink:href="#E1-MJMATHI-69" x="1013" y="-213"></use>
</g>
</g>
</g>
</g>
</g>
<g transform="translate(0,2728)">
 <use xlink:href="#E1-MJMAIN-3D" x="277" y="0"></use>
 <use xlink:href="#E1-MJMAIN-5B" x="1334" y="0"></use>
 <use xlink:href="#E1-MJMAIN-2212" x="1612" y="0"></use>
<g transform="translate(2391,0)">
<g transform="translate(120,0)">
<rect stroke="none" width="623" height="60" x="0" y="220"></rect>
 <use xlink:href="#E1-MJMATHI-79" x="63" y="725"></use>
 <use xlink:href="#E1-MJMATHI-70" x="60" y="-686"></use>
</g>
</g>
 <use xlink:href="#E1-MJMAIN-2B" x="3476" y="0"></use>
<g transform="translate(4255,0)">
<g transform="translate(342,0)">
<rect stroke="none" width="2346" height="60" x="0" y="220"></rect>
<g transform="translate(63,725)">
 <use xlink:href="#E1-MJMAIN-31" x="0" y="0"></use>
 <use xlink:href="#E1-MJMAIN-2212" x="722" y="0"></use>
 <use xlink:href="#E1-MJMATHI-79" x="1723" y="0"></use>
</g>
<g transform="translate(60,-687)">
 <use xlink:href="#E1-MJMAIN-31" x="0" y="0"></use>
 <use xlink:href="#E1-MJMAIN-2212" x="722" y="0"></use>
 <use xlink:href="#E1-MJMATHI-70" x="1723" y="0"></use>
</g>
</g>
</g>
 <use xlink:href="#E1-MJMAIN-5D" x="7064" y="0"></use>
 <use xlink:href="#E1-MJMAIN-22C5" x="7565" y="0"></use>
 <use xlink:href="#E1-MJMATHI-3C3" x="8065" y="0"></use>
 <use xlink:href="#E1-MJMAIN-28" x="8638" y="0"></use>
 <use xlink:href="#E1-MJMATHI-73" x="9027" y="0"></use>
 <use xlink:href="#E1-MJMAIN-29" x="9497" y="0"></use>
 <use xlink:href="#E1-MJMAIN-22C5" x="10109" y="0"></use>
 <use xlink:href="#E1-MJMAIN-5B" x="10609" y="0"></use>
 <use xlink:href="#E1-MJMAIN-31" x="10888" y="0"></use>
 <use xlink:href="#E1-MJMAIN-2212" x="11611" y="0"></use>
 <use xlink:href="#E1-MJMATHI-3C3" x="12611" y="0"></use>
 <use xlink:href="#E1-MJMAIN-28" x="13184" y="0"></use>
 <use xlink:href="#E1-MJMATHI-73" x="13573" y="0"></use>
 <use xlink:href="#E1-MJMAIN-29" x="14043" y="0"></use>
 <use xlink:href="#E1-MJMAIN-5D" x="14432" y="0"></use>
 <use xlink:href="#E1-MJMAIN-22C5" x="14933" y="0"></use>
<g transform="translate(15434,0)">
 <use xlink:href="#E1-MJMATHI-78" x="0" y="0"></use>
 <use transform="scale(0.707)" xlink:href="#E1-MJMATHI-69" x="809" y="-213"></use>
</g>
</g>
<g transform="translate(0,155)">
 <use xlink:href="#E1-MJMAIN-3D" x="277" y="0"></use>
 <use xlink:href="#E1-MJMAIN-5B" x="1334" y="0"></use>
 <use xlink:href="#E1-MJMAIN-2212" x="1612" y="0"></use>
<g transform="translate(2391,0)">
<g transform="translate(120,0)">
<rect stroke="none" width="1941" height="60" x="0" y="220"></rect>
 <use xlink:href="#E1-MJMATHI-79" x="721" y="725"></use>
<g transform="translate(60,-771)">
 <use xlink:href="#E1-MJMATHI-3C3" x="0" y="0"></use>
 <use xlink:href="#E1-MJMAIN-28" x="572" y="0"></use>
 <use xlink:href="#E1-MJMATHI-73" x="962" y="0"></use>
 <use xlink:href="#E1-MJMAIN-29" x="1431" y="0"></use>
</g>
</g>
</g>
 <use xlink:href="#E1-MJMAIN-2B" x="4794" y="0"></use>
<g transform="translate(5572,0)">
<g transform="translate(342,0)">
<rect stroke="none" width="3664" height="60" x="0" y="220"></rect>
<g transform="translate(721,725)">
 <use xlink:href="#E1-MJMAIN-31" x="0" y="0"></use>
 <use xlink:href="#E1-MJMAIN-2212" x="722" y="0"></use>
 <use xlink:href="#E1-MJMATHI-79" x="1723" y="0"></use>
</g>
<g transform="translate(60,-771)">
 <use xlink:href="#E1-MJMAIN-31" x="0" y="0"></use>
 <use xlink:href="#E1-MJMAIN-2212" x="722" y="0"></use>
 <use xlink:href="#E1-MJMATHI-3C3" x="1723" y="0"></use>
 <use xlink:href="#E1-MJMAIN-28" x="2295" y="0"></use>
 <use xlink:href="#E1-MJMATHI-73" x="2685" y="0"></use>
 <use xlink:href="#E1-MJMAIN-29" x="3154" y="0"></use>
</g>
</g>
</g>
 <use xlink:href="#E1-MJMAIN-5D" x="9699" y="0"></use>
 <use xlink:href="#E1-MJMAIN-22C5" x="10200" y="0"></use>
 <use xlink:href="#E1-MJMATHI-3C3" x="10700" y="0"></use>
 <use xlink:href="#E1-MJMAIN-28" x="11273" y="0"></use>
 <use xlink:href="#E1-MJMATHI-73" x="11662" y="0"></use>
 <use xlink:href="#E1-MJMAIN-29" x="12132" y="0"></use>
 <use xlink:href="#E1-MJMAIN-22C5" x="12744" y="0"></use>
 <use xlink:href="#E1-MJMAIN-5B" x="13244" y="0"></use>
 <use xlink:href="#E1-MJMAIN-31" x="13523" y="0"></use>
 <use xlink:href="#E1-MJMAIN-2212" x="14246" y="0"></use>
 <use xlink:href="#E1-MJMATHI-3C3" x="15246" y="0"></use>
 <use xlink:href="#E1-MJMAIN-28" x="15819" y="0"></use>
 <use xlink:href="#E1-MJMATHI-73" x="16208" y="0"></use>
 <use xlink:href="#E1-MJMAIN-29" x="16678" y="0"></use>
 <use xlink:href="#E1-MJMAIN-5D" x="17067" y="0"></use>
 <use xlink:href="#E1-MJMAIN-22C5" x="17568" y="0"></use>
<g transform="translate(18069,0)">
 <use xlink:href="#E1-MJMATHI-78" x="0" y="0"></use>
 <use transform="scale(0.707)" xlink:href="#E1-MJMATHI-69" x="809" y="-213"></use>
</g>
</g>
<g transform="translate(0,-2559)">
 <use xlink:href="#E1-MJMAIN-3D" x="277" y="0"></use>
 <use xlink:href="#E1-MJMAIN-5B" x="1334" y="0"></use>
 <use xlink:href="#E1-MJMAIN-2212" x="1612" y="0"></use>
<g transform="translate(2391,0)">
<g transform="translate(120,0)">
<rect stroke="none" width="1941" height="60" x="0" y="220"></rect>
 <use xlink:href="#E1-MJMATHI-79" x="721" y="725"></use>
<g transform="translate(60,-771)">
 <use xlink:href="#E1-MJMATHI-3C3" x="0" y="0"></use>
 <use xlink:href="#E1-MJMAIN-28" x="572" y="0"></use>
 <use xlink:href="#E1-MJMATHI-73" x="962" y="0"></use>
 <use xlink:href="#E1-MJMAIN-29" x="1431" y="0"></use>
</g>
</g>
</g>
 <use xlink:href="#E1-MJMAIN-22C5" x="4794" y="0"></use>
 <use xlink:href="#E1-MJMATHI-3C3" x="5295" y="0"></use>
 <use xlink:href="#E1-MJMAIN-28" x="5867" y="0"></use>
 <use xlink:href="#E1-MJMATHI-73" x="6257" y="0"></use>
 <use xlink:href="#E1-MJMAIN-29" x="6726" y="0"></use>
 <use xlink:href="#E1-MJMAIN-22C5" x="7338" y="0"></use>
 <use xlink:href="#E1-MJMAIN-28" x="7838" y="0"></use>
 <use xlink:href="#E1-MJMAIN-31" x="8228" y="0"></use>
 <use xlink:href="#E1-MJMAIN-2212" x="8951" y="0"></use>
 <use xlink:href="#E1-MJMATHI-3C3" x="9951" y="0"></use>
 <use xlink:href="#E1-MJMAIN-28" x="10524" y="0"></use>
 <use xlink:href="#E1-MJMATHI-73" x="10913" y="0"></use>
 <use xlink:href="#E1-MJMAIN-29" x="11383" y="0"></use>
 <use xlink:href="#E1-MJMAIN-29" x="11772" y="0"></use>
 <use xlink:href="#E1-MJMAIN-2B" x="12384" y="0"></use>
<g transform="translate(13163,0)">
<g transform="translate(342,0)">
<rect stroke="none" width="3664" height="60" x="0" y="220"></rect>
<g transform="translate(721,725)">
 <use xlink:href="#E1-MJMAIN-31" x="0" y="0"></use>
 <use xlink:href="#E1-MJMAIN-2212" x="722" y="0"></use>
 <use xlink:href="#E1-MJMATHI-79" x="1723" y="0"></use>
</g>
<g transform="translate(60,-771)">
 <use xlink:href="#E1-MJMAIN-31" x="0" y="0"></use>
 <use xlink:href="#E1-MJMAIN-2212" x="722" y="0"></use>
 <use xlink:href="#E1-MJMATHI-3C3" x="1723" y="0"></use>
 <use xlink:href="#E1-MJMAIN-28" x="2295" y="0"></use>
 <use xlink:href="#E1-MJMATHI-73" x="2685" y="0"></use>
 <use xlink:href="#E1-MJMAIN-29" x="3154" y="0"></use>
</g>
</g>
</g>
 <use xlink:href="#E1-MJMAIN-22C5" x="17512" y="0"></use>
 <use xlink:href="#E1-MJMATHI-3C3" x="18012" y="0"></use>
 <use xlink:href="#E1-MJMAIN-28" x="18585" y="0"></use>
 <use xlink:href="#E1-MJMATHI-73" x="18974" y="0"></use>
 <use xlink:href="#E1-MJMAIN-29" x="19444" y="0"></use>
 <use xlink:href="#E1-MJMAIN-22C5" x="20055" y="0"></use>
 <use xlink:href="#E1-MJMAIN-28" x="20556" y="0"></use>
 <use xlink:href="#E1-MJMAIN-31" x="20946" y="0"></use>
 <use xlink:href="#E1-MJMAIN-2212" x="21668" y="0"></use>
 <use xlink:href="#E1-MJMATHI-3C3" x="22669" y="0"></use>
 <use xlink:href="#E1-MJMAIN-28" x="23242" y="0"></use>
 <use xlink:href="#E1-MJMATHI-73" x="23631" y="0"></use>
 <use xlink:href="#E1-MJMAIN-29" x="24101" y="0"></use>
 <use xlink:href="#E1-MJMAIN-29" x="24490" y="0"></use>
 <use xlink:href="#E1-MJMAIN-5D" x="24880" y="0"></use>
 <use xlink:href="#E1-MJMAIN-22C5" x="25380" y="0"></use>
<g transform="translate(25881,0)">
 <use xlink:href="#E1-MJMATHI-78" x="0" y="0"></use>
 <use transform="scale(0.707)" xlink:href="#E1-MJMATHI-69" x="809" y="-213"></use>
</g>
</g>
<g transform="translate(0,-4681)">
 <use xlink:href="#E1-MJMAIN-3D" x="277" y="0"></use>
 <use xlink:href="#E1-MJMAIN-5B" x="1334" y="0"></use>
 <use xlink:href="#E1-MJMAIN-2212" x="1612" y="0"></use>
 <use xlink:href="#E1-MJMATHI-79" x="2391" y="0"></use>
 <use xlink:href="#E1-MJMAIN-2B" x="3110" y="0"></use>
 <use xlink:href="#E1-MJMATHI-79" x="4111" y="0"></use>
 <use xlink:href="#E1-MJMAIN-22C5" x="4831" y="0"></use>
 <use xlink:href="#E1-MJMATHI-3C3" x="5331" y="0"></use>
 <use xlink:href="#E1-MJMAIN-28" x="5904" y="0"></use>
 <use xlink:href="#E1-MJMATHI-73" x="6293" y="0"></use>
 <use xlink:href="#E1-MJMAIN-29" x="6763" y="0"></use>
 <use xlink:href="#E1-MJMAIN-2B" x="7375" y="0"></use>
 <use xlink:href="#E1-MJMATHI-3C3" x="8375" y="0"></use>
 <use xlink:href="#E1-MJMAIN-28" x="8948" y="0"></use>
 <use xlink:href="#E1-MJMATHI-73" x="9337" y="0"></use>
 <use xlink:href="#E1-MJMAIN-29" x="9807" y="0"></use>
 <use xlink:href="#E1-MJMAIN-2212" x="10419" y="0"></use>
 <use xlink:href="#E1-MJMATHI-79" x="11419" y="0"></use>
 <use xlink:href="#E1-MJMAIN-22C5" x="12139" y="0"></use>
 <use xlink:href="#E1-MJMATHI-3C3" x="12640" y="0"></use>
 <use xlink:href="#E1-MJMAIN-28" x="13212" y="0"></use>
 <use xlink:href="#E1-MJMATHI-73" x="13602" y="0"></use>
 <use xlink:href="#E1-MJMAIN-29" x="14071" y="0"></use>
 <use xlink:href="#E1-MJMAIN-5D" x="14461" y="0"></use>
 <use xlink:href="#E1-MJMAIN-22C5" x="14962" y="0"></use>
<g transform="translate(15462,0)">
 <use xlink:href="#E1-MJMATHI-78" x="0" y="0"></use>
 <use transform="scale(0.707)" xlink:href="#E1-MJMATHI-69" x="809" y="-213"></use>
</g>
</g>
<g transform="translate(0,-6032)">
 <use xlink:href="#E1-MJMAIN-3D" x="277" y="0"></use>
 <use xlink:href="#E1-MJMAIN-5B" x="1334" y="0"></use>
 <use xlink:href="#E1-MJMATHI-3C3" x="1612" y="0"></use>
 <use xlink:href="#E1-MJMAIN-28" x="2185" y="0"></use>
 <use xlink:href="#E1-MJMATHI-73" x="2574" y="0"></use>
 <use xlink:href="#E1-MJMAIN-29" x="3044" y="0"></use>
 <use xlink:href="#E1-MJMAIN-2212" x="3655" y="0"></use>
 <use xlink:href="#E1-MJMATHI-79" x="4656" y="0"></use>
 <use xlink:href="#E1-MJMAIN-5D" x="5154" y="0"></use>
 <use xlink:href="#E1-MJMAIN-22C5" x="5654" y="0"></use>
<g transform="translate(6155,0)">
 <use xlink:href="#E1-MJMATHI-78" x="0" y="0"></use>
 <use transform="scale(0.707)" xlink:href="#E1-MJMATHI-69" x="809" y="-213"></use>
</g>
</g>
</g>
</g>
</g>
</g>
</svg>