<svg xmlns:xlink="http://www.w3.org/1999/xlink" width="75ex" height="19.176ex" style="font-size: 15px; vertical-align: -9.505ex; max-width: 450;" viewBox="0 -4164 32291.5 8256.3" role="img" focusable="false" xmlns="http://www.w3.org/2000/svg">
<defs>
<path stroke-width="1" id="E1-MJMAIN-2202" d="M202 508Q179 508 169 520T158 547Q158 557 164 577T185 624T230 675T301 710L333 715H345Q378 715 384 714Q447 703 489 661T549 568T566 457Q566 362 519 240T402 53Q321 -22 223 -22Q123 -22 73 56Q42 102 42 148V159Q42 276 129 370T322 465Q383 465 414 434T455 367L458 378Q478 461 478 515Q478 603 437 639T344 676Q266 676 223 612Q264 606 264 572Q264 547 246 528T202 508ZM430 306Q430 372 401 400T333 428Q270 428 222 382Q197 354 183 323T150 221Q132 149 132 116Q132 21 232 21Q244 21 250 22Q327 35 374 112Q389 137 409 196T430 306Z"></path>
<path stroke-width="1" id="E1-MJMATHI-4C" d="M228 637Q194 637 192 641Q191 643 191 649Q191 673 202 682Q204 683 217 683Q271 680 344 680Q485 680 506 683H518Q524 677 524 674T522 656Q517 641 513 637H475Q406 636 394 628Q387 624 380 600T313 336Q297 271 279 198T252 88L243 52Q243 48 252 48T311 46H328Q360 46 379 47T428 54T478 72T522 106T564 161Q580 191 594 228T611 270Q616 273 628 273H641Q647 264 647 262T627 203T583 83T557 9Q555 4 553 3T537 0T494 -1Q483 -1 418 -1T294 0H116Q32 0 32 10Q32 17 34 24Q39 43 44 45Q48 46 59 46H65Q92 46 125 49Q139 52 144 61Q147 65 216 339T285 628Q285 635 228 637Z"></path>
<path stroke-width="1" id="E1-MJMATHI-70" d="M23 287Q24 290 25 295T30 317T40 348T55 381T75 411T101 433T134 442Q209 442 230 378L240 387Q302 442 358 442Q423 442 460 395T497 281Q497 173 421 82T249 -10Q227 -10 210 -4Q199 1 187 11T168 28L161 36Q160 35 139 -51T118 -138Q118 -144 126 -145T163 -148H188Q194 -155 194 -157T191 -175Q188 -187 185 -190T172 -194Q170 -194 161 -194T127 -193T65 -192Q-5 -192 -24 -194H-32Q-39 -187 -39 -183Q-37 -156 -26 -148H-6Q28 -147 33 -136Q36 -130 94 103T155 350Q156 355 156 364Q156 405 131 405Q109 405 94 377T71 316T59 280Q57 278 43 278H29Q23 284 23 287ZM178 102Q200 26 252 26Q282 26 310 49T356 107Q374 141 392 215T411 325V331Q411 405 350 405Q339 405 328 402T306 393T286 380T269 365T254 350T243 336T235 326L232 322Q232 321 229 308T218 264T204 212Q178 106 178 102Z"></path>
<path stroke-width="1" id="E1-MJMAIN-3D" d="M56 347Q56 360 70 367H707Q722 359 722 347Q722 336 708 328L390 327H72Q56 332 56 347ZM56 153Q56 168 72 173H708Q722 163 722 153Q722 140 707 133H70Q56 140 56 153Z"></path>
<path stroke-width="1" id="E1-MJMAIN-2212" d="M84 237T84 250T98 270H679Q694 262 694 250T679 230H98Q84 237 84 250Z"></path>
<path stroke-width="1" id="E1-MJMAIN-5B" d="M118 -250V750H255V710H158V-210H255V-250H118Z"></path>
<path stroke-width="1" id="E1-MJMATHI-79" d="M21 287Q21 301 36 335T84 406T158 442Q199 442 224 419T250 355Q248 336 247 334Q247 331 231 288T198 191T182 105Q182 62 196 45T238 27Q261 27 281 38T312 61T339 94Q339 95 344 114T358 173T377 247Q415 397 419 404Q432 431 462 431Q475 431 483 424T494 412T496 403Q496 390 447 193T391 -23Q363 -106 294 -155T156 -205Q111 -205 77 -183T43 -117Q43 -95 50 -80T69 -58T89 -48T106 -45Q150 -45 150 -87Q150 -107 138 -122T115 -142T102 -147L99 -148Q101 -153 118 -160T152 -167H160Q177 -167 186 -165Q219 -156 247 -127T290 -65T313 -9T321 21L315 17Q309 13 296 6T270 -6Q250 -11 231 -11Q185 -11 150 11T104 82Q103 89 103 113Q103 170 138 262T173 379Q173 380 173 381Q173 390 173 393T169 400T158 404H154Q131 404 112 385T82 344T65 302T57 280Q55 278 41 278H27Q21 284 21 287Z"></path>
<path stroke-width="1" id="E1-MJMAIN-22C5" d="M78 250Q78 274 95 292T138 310Q162 310 180 294T199 251Q199 226 182 208T139 190T96 207T78 250Z"></path>
<path stroke-width="1" id="E1-MJMATHI-6C" d="M117 59Q117 26 142 26Q179 26 205 131Q211 151 215 152Q217 153 225 153H229Q238 153 241 153T246 151T248 144Q247 138 245 128T234 90T214 43T183 6T137 -11Q101 -11 70 11T38 85Q38 97 39 102L104 360Q167 615 167 623Q167 626 166 628T162 632T157 634T149 635T141 636T132 637T122 637Q112 637 109 637T101 638T95 641T94 647Q94 649 96 661Q101 680 107 682T179 688Q194 689 213 690T243 693T254 694Q266 694 266 686Q266 675 193 386T118 83Q118 81 118 75T117 65V59Z"></path>
<path stroke-width="1" id="E1-MJMATHI-6F" d="M201 -11Q126 -11 80 38T34 156Q34 221 64 279T146 380Q222 441 301 441Q333 441 341 440Q354 437 367 433T402 417T438 387T464 338T476 268Q476 161 390 75T201 -11ZM121 120Q121 70 147 48T206 26Q250 26 289 58T351 142Q360 163 374 216T388 308Q388 352 370 375Q346 405 306 405Q243 405 195 347Q158 303 140 230T121 120Z"></path>
<path stroke-width="1" id="E1-MJMATHI-67" d="M311 43Q296 30 267 15T206 0Q143 0 105 45T66 160Q66 265 143 353T314 442Q361 442 401 394L404 398Q406 401 409 404T418 412T431 419T447 422Q461 422 470 413T480 394Q480 379 423 152T363 -80Q345 -134 286 -169T151 -205Q10 -205 10 -137Q10 -111 28 -91T74 -71Q89 -71 102 -80T116 -111Q116 -121 114 -130T107 -144T99 -154T92 -162L90 -164H91Q101 -167 151 -167Q189 -167 211 -155Q234 -144 254 -122T282 -75Q288 -56 298 -13Q311 35 311 43ZM384 328L380 339Q377 350 375 354T369 368T359 382T346 393T328 402T306 405Q262 405 221 352Q191 313 171 233T151 117Q151 38 213 38Q269 38 323 108L331 118L384 328Z"></path>
<path stroke-width="1" id="E1-MJMAIN-28" d="M94 250Q94 319 104 381T127 488T164 576T202 643T244 695T277 729T302 750H315H319Q333 750 333 741Q333 738 316 720T275 667T226 581T184 443T167 250T184 58T225 -81T274 -167T316 -220T333 -241Q333 -250 318 -250H315H302L274 -226Q180 -141 137 -14T94 250Z"></path>
<path stroke-width="1" id="E1-MJMAIN-29" d="M60 749L64 750Q69 750 74 750H86L114 726Q208 641 251 514T294 250Q294 182 284 119T261 12T224 -76T186 -143T145 -194T113 -227T90 -246Q87 -249 86 -250H74Q66 -250 63 -250T58 -247T55 -238Q56 -237 66 -225Q221 -64 221 250T66 725Q56 737 55 738Q55 746 60 749Z"></path>
<path stroke-width="1" id="E1-MJMAIN-2B" d="M56 237T56 250T70 270H369V420L370 570Q380 583 389 583Q402 583 409 568V270H707Q722 262 722 250T707 230H409V-68Q401 -82 391 -82H389H387Q375 -82 369 -68V230H70Q56 237 56 250Z"></path>
<path stroke-width="1" id="E1-MJMAIN-31" d="M213 578L200 573Q186 568 160 563T102 556H83V602H102Q149 604 189 617T245 641T273 663Q275 666 285 666Q294 666 302 660V361L303 61Q310 54 315 52T339 48T401 46H427V0H416Q395 3 257 3Q121 3 100 0H88V46H114Q136 46 152 46T177 47T193 50T201 52T207 57T213 61V578Z"></path>
<path stroke-width="1" id="E1-MJMAIN-5D" d="M22 710V750H159V-250H22V-210H119V710H22Z"></path>
</defs>
<g stroke="currentColor" fill="currentColor" stroke-width="0" transform="matrix(1 0 0 -1 0 0)">
<g transform="translate(6666,0)">
<g transform="translate(167,0)">
<g transform="translate(-11,0)">
<g transform="translate(0,2503)">
<g transform="translate(120,0)">
<rect stroke="none" width="1369" height="60" x="0" y="220"></rect>
<g transform="translate(60,676)">
 <use xlink:href="#E1-MJMAIN-2202" x="0" y="0"></use>
 <use xlink:href="#E1-MJMATHI-4C" x="567" y="0"></use>
</g>
<g transform="translate(149,-736)">
 <use xlink:href="#E1-MJMAIN-2202" x="0" y="0"></use>
 <use xlink:href="#E1-MJMATHI-70" x="567" y="0"></use>
</g>
</g>
</g>
</g>
<g transform="translate(1598,0)">
<g transform="translate(0,2503)">
 <use xlink:href="#E1-MJMAIN-3D" x="277" y="0"></use>
<g transform="translate(1056,0)">
<g transform="translate(397,0)">
<rect stroke="none" width="15451" height="60" x="0" y="220"></rect>
<g transform="translate(60,770)">
 <use xlink:href="#E1-MJMAIN-2202" x="0" y="0"></use>
 <use xlink:href="#E1-MJMAIN-2212" x="789" y="0"></use>
 <use xlink:href="#E1-MJMAIN-5B" x="1790" y="0"></use>
 <use xlink:href="#E1-MJMATHI-79" x="2068" y="0"></use>
 <use xlink:href="#E1-MJMAIN-22C5" x="2788" y="0"></use>
 <use xlink:href="#E1-MJMATHI-6C" x="3289" y="0"></use>
 <use xlink:href="#E1-MJMATHI-6F" x="3587" y="0"></use>
 <use xlink:href="#E1-MJMATHI-67" x="4073" y="0"></use>
 <use xlink:href="#E1-MJMAIN-28" x="4553" y="0"></use>
 <use xlink:href="#E1-MJMATHI-70" x="4943" y="0"></use>
 <use xlink:href="#E1-MJMAIN-29" x="5446" y="0"></use>
 <use xlink:href="#E1-MJMAIN-2B" x="6058" y="0"></use>
 <use xlink:href="#E1-MJMAIN-28" x="7059" y="0"></use>
 <use xlink:href="#E1-MJMAIN-31" x="7448" y="0"></use>
 <use xlink:href="#E1-MJMAIN-2212" x="8171" y="0"></use>
 <use xlink:href="#E1-MJMATHI-79" x="9172" y="0"></use>
 <use xlink:href="#E1-MJMAIN-29" x="9669" y="0"></use>
 <use xlink:href="#E1-MJMAIN-22C5" x="10281" y="0"></use>
 <use xlink:href="#E1-MJMATHI-6C" x="10782" y="0"></use>
 <use xlink:href="#E1-MJMATHI-6F" x="11080" y="0"></use>
 <use xlink:href="#E1-MJMATHI-67" x="11566" y="0"></use>
 <use xlink:href="#E1-MJMAIN-28" x="12046" y="0"></use>
 <use xlink:href="#E1-MJMAIN-31" x="12436" y="0"></use>
 <use xlink:href="#E1-MJMAIN-2212" x="13158" y="0"></use>
 <use xlink:href="#E1-MJMATHI-70" x="14159" y="0"></use>
 <use xlink:href="#E1-MJMAIN-29" x="14663" y="0"></use>
 <use xlink:href="#E1-MJMAIN-5D" x="15052" y="0"></use>
</g>
<g transform="translate(7190,-736)">
 <use xlink:href="#E1-MJMAIN-2202" x="0" y="0"></use>
 <use xlink:href="#E1-MJMATHI-70" x="567" y="0"></use>
</g>
</g>
</g>
</g>
<g transform="translate(0,-71)">
 <use xlink:href="#E1-MJMAIN-3D" x="277" y="0"></use>
 <use xlink:href="#E1-MJMAIN-2212" x="1334" y="0"></use>
<g transform="translate(2112,0)">
<g transform="translate(120,0)">
<rect stroke="none" width="623" height="60" x="0" y="220"></rect>
 <use xlink:href="#E1-MJMATHI-79" x="63" y="725"></use>
 <use xlink:href="#E1-MJMATHI-70" x="60" y="-686"></use>
</g>
</g>
 <use xlink:href="#E1-MJMAIN-2212" x="3198" y="0"></use>
 <use xlink:href="#E1-MJMAIN-5B" x="4199" y="0"></use>
 <use xlink:href="#E1-MJMAIN-28" x="4477" y="0"></use>
 <use xlink:href="#E1-MJMAIN-31" x="4867" y="0"></use>
 <use xlink:href="#E1-MJMAIN-2212" x="5589" y="0"></use>
 <use xlink:href="#E1-MJMATHI-79" x="6590" y="0"></use>
 <use xlink:href="#E1-MJMAIN-29" x="7087" y="0"></use>
 <use xlink:href="#E1-MJMAIN-22C5" x="7699" y="0"></use>
<g transform="translate(7978,0)">
<g transform="translate(342,0)">
<rect stroke="none" width="2346" height="60" x="0" y="220"></rect>
 <use xlink:href="#E1-MJMAIN-31" x="923" y="676"></use>
<g transform="translate(60,-687)">
 <use xlink:href="#E1-MJMAIN-31" x="0" y="0"></use>
 <use xlink:href="#E1-MJMAIN-2212" x="722" y="0"></use>
 <use xlink:href="#E1-MJMATHI-70" x="1723" y="0"></use>
</g>
</g>
</g>
 <use xlink:href="#E1-MJMAIN-22C5" x="11009" y="0"></use>
 <use xlink:href="#E1-MJMAIN-28" x="11510" y="0"></use>
 <use xlink:href="#E1-MJMAIN-2212" x="11899" y="0"></use>
 <use xlink:href="#E1-MJMAIN-31" x="12678" y="0"></use>
 <use xlink:href="#E1-MJMAIN-29" x="13178" y="0"></use>
 <use xlink:href="#E1-MJMAIN-5D" x="13568" y="0"></use>
</g>
<g transform="translate(0,-2644)">
 <use xlink:href="#E1-MJMAIN-3D" x="277" y="0"></use>
 <use xlink:href="#E1-MJMAIN-2212" x="1334" y="0"></use>
<g transform="translate(2112,0)">
<g transform="translate(120,0)">
<rect stroke="none" width="623" height="60" x="0" y="220"></rect>
 <use xlink:href="#E1-MJMATHI-79" x="63" y="725"></use>
 <use xlink:href="#E1-MJMATHI-70" x="60" y="-686"></use>
</g>
</g>
 <use xlink:href="#E1-MJMAIN-2B" x="3198" y="0"></use>
<g transform="translate(3976,0)">
<g transform="translate(342,0)">
<rect stroke="none" width="2346" height="60" x="0" y="220"></rect>
<g transform="translate(63,725)">
 <use xlink:href="#E1-MJMAIN-31" x="0" y="0"></use>
 <use xlink:href="#E1-MJMAIN-2212" x="722" y="0"></use>
 <use xlink:href="#E1-MJMATHI-79" x="1723" y="0"></use>
</g>
<g transform="translate(60,-687)">
 <use xlink:href="#E1-MJMAIN-31" x="0" y="0"></use>
 <use xlink:href="#E1-MJMAIN-2212" x="722" y="0"></use>
 <use xlink:href="#E1-MJMATHI-70" x="1723" y="0"></use>
</g>
</g>
</g>
</g>
</g>
</g>
</g>
</g>
</svg>